<?xml version="1.0" encoding="UTF-8"?>
<svg version="1.1" viewBox="0 0 1024 1024" width="1024" height="1024" xmlns="http://www.w3.org/2000/svg">
<path transform="translate(496,213)" d="m0 0h34l24 3 25 6 23 8 21 10 19 12 12 9 14 12 17 17 11 14 14 21 12 25 9 27 5 26 1 10v14l-4 10-6 7-12 6-45 15-25 8-24 8-9 2h-26l-114-10-10-2-6-5-1-2v-7l5-6 19-7 36-12 109-36-1-6-8-16-7-11-12-13-16-12-15-8-19-7-16-3-19-1-20 2-18 5-16 7-13 8-10 8-9 8-11 14-10 17-7 19-4 20v27l4 20 6 17 10 18 10 13 12 12 15 11 17 9 18 6 16 3h30l20-4 17-6 15-8 11-8 11-9 9-11 10-13 5-5 6-2 11 1 50 23 8 5 5 6 3 10-2 11-7 14-12 17-11 13-10 11-8 7-13 11-15 10-17 10-15 7-19 7-28 7-25 3h-26l-22-2-25-5-27-9-18-8-16-9-12-8-14-11-10-9-12-11-9-10-15-20-11-19-10-21-7-20-5-19-3-18-1-11v-38l3-25 7-28 7-19 10-21 10-16 10-14 9-11h2l2-4 13-13 11-9 18-13 16-9 16-8 20-8 17-5 20-4z" fill="#F84652"/>
<path transform="translate(496,213)" d="m0 0h34l24 3 25 6 23 8 21 10 19 12 12 9 14 12 17 17 11 14 14 21 12 25 9 27 5 26 1 10v14l-4 10-6 7-12 6-45 15-25 8-24 8-9 2h-26l-114-10-10-2-6-5-1-2v-7l5-6 19-7 36-12 109-36-1-6-8-16-7-11-12-13-16-12-15-8-19-7-16-3-19-1-20 2-18 5-16 7-13 8-10 8-9 8-11 14-10 17-7 19-4 20v27l4 20 6 17 10 18 10 13 12 12 15 11 17 9 18 6 16 3h30l20-4 17-6 15-8 11-8 11-9 9-11 10-13 5-5 6-2 11 1 50 23 8 5 5 6 3 10-2 11-7 14-12 17-11 13-10 11-8 7-13 11-15 10-17 10-15 7-19 7-28 7-25 3h-26l-22-2-25-5-27-9-18-8-16-9-12-8-14-11-10-9-12-11-9-10-15-20-11-19-10-21-7-20-5-19-3-18-1-11v-38l3-25 7-28 7-19 10-21 10-16 10-14 9-11h2l2-4 13-13 11-9 18-13 16-9 16-8 20-8 17-5 20-4zm0 21-23 3-20 5-20 7-16 8-11 6-12 8-13 10-10 9-15 15-8 10-9 13-9 16-8 17-9 27-4 20-2 18v31l3 23 6 24 8 21 8 16 9 15 10 14 10 11 7 8 12 11 17 13 13 8 23 12 25 9 23 5 15 2h38l21-3 23-6 16-6 17-8 21-13 16-13 12-11 11-12 11-15 8-14v-7l-16-8-31-14-5 1-11 14-9 10-10 9-18 12-14 7-20 7-14 3-22 2-21-1-20-4-18-6-17-8-15-10-13-11-9-9-11-15-9-15-7-17-5-18-2-12-1-13v-14l3-22 6-20 10-21 10-14 11-13 11-10 14-10 23-12 15-5 20-4 9-1h22l16 2 21 6 16 7 11 6 11 8 13 11 10 11 7 10 9 17 5 17v10l-3 6-5 4-36 12-62 20-44 14v1l81 3h22l15-3 57-18 40-13 5-3 1-2v-16l-4-23-6-20-8-19-10-19-14-19-12-13-12-12-17-13-19-12-23-11-21-7-17-4-24-3z"/>
</svg>
